<svg width="28" height="28" viewBox="0 0 28 28" fill="none" xmlns="http://www.w3.org/2000/svg">
<g clip-path="url(#clip0_258_67)">
<path d="M21 1H7C3.68629 1 1 3.68629 1 7V21C1 24.3137 3.68629 27 7 27H21C24.3137 27 27 24.3137 27 21V7C27 3.68629 24.3137 1 21 1Z" stroke="#000001" stroke-width="2.5" stroke-linecap="round" stroke-linejoin="round"/>
<path d="M8 16L12.1 19.28C12.2101 19.3707 12.339 19.4357 12.4774 19.4703C12.6158 19.5049 12.7602 19.5082 12.9 19.48C13.0412 19.4535 13.175 19.3969 13.2923 19.3141C13.4097 19.2313 13.5078 19.1241 13.58 19L20 8" stroke="#000001" stroke-width="2.5" stroke-linecap="round" stroke-linejoin="round"/>
</g>
<defs>
<clipPath id="clip0_258_67">
<rect width="28" height="28" fill="white"/>
</clipPath>
</defs>
</svg>
