<svg width="30" height="30" viewBox="0 0 30 30" fill="none" xmlns="http://www.w3.org/2000/svg">
<path d="M3 8H27" stroke="#4B4B4B" stroke-width="2.5" stroke-linecap="round" stroke-linejoin="round"/>
<path d="M6 8H24V26C24 26.5304 23.7893 27.0391 23.4142 27.4142C23.0391 27.7893 22.5304 28 22 28H8C7.46957 28 6.96086 27.7893 6.58579 27.4142C6.21071 27.0391 6 26.5304 6 26V8Z" stroke="#4B4B4B" stroke-width="2.5" stroke-linecap="round" stroke-linejoin="round"/>
<path d="M10 8V7C10 5.67392 10.5268 4.40215 11.4645 3.46447C12.4021 2.52678 13.6739 2 15 2C16.3261 2 17.5979 2.52678 18.5355 3.46447C19.4732 4.40215 20 5.67392 20 7V8" stroke="#4B4B4B" stroke-width="2.5" stroke-linecap="round" stroke-linejoin="round"/>
<path d="M12 12V23" stroke="#4B4B4B" stroke-width="2.5" stroke-linecap="round" stroke-linejoin="round"/>
<path d="M18 12V23" stroke="#4B4B4B" stroke-width="2.5" stroke-linecap="round" stroke-linejoin="round"/>
</svg>
